<?xml version="1.0" encoding="utf-8"?>
<!-- Generator: Adobe Illustrator 24.0.1, SVG Export Plug-In . SVG Version: 6.00 Build 0)  -->
<svg version="1.1" id="Layer_1" xmlns="http://www.w3.org/2000/svg" xmlns:xlink="http://www.w3.org/1999/xlink" x="0px" y="0px"
	 viewBox="0 0 65 71" style="enable-background:new 0 0 65 71;" xml:space="preserve">
<style type="text/css">
	.st0{fill:#5ECBFC;}
	.st1{fill:#F9FDFE;}
</style>
<g>
	<path class="st0" d="M25.95,54.03c0.87-0.83,3.04-1.04,3.93-0.36c0.43,0.33,0.46,0.72,0.05,1.08c-0.25,0.22-0.7,0.31-0.41,0.76
		c0.17,0.26,0.49,0.36,0.81,0.28c0.42-0.11,0.6-0.37,0.64-0.83c0.09-1.18,0.12-1.18,1.38-1.52c-1.44-2.23-1.11-3.35,1.16-4.85
		c1.52-1,3.18-1.48,4.92-1.83c0.45-0.09,0.93-0.17,0.89-0.72c-0.21-2.46,0.71-4.86,0.38-7.32c-0.09-1.14-0.15-2.29-0.28-3.43
		c-0.06-0.49-0.48-0.83-0.93-0.62c-0.52,0.24,0,0.58,0.13,0.83c0.52,1.02,0.7,2.1,0.72,3.22c-0.23,0.63,0.22,1.82-0.82,1.75
		c-1.08-0.07-0.32-1.19-0.5-1.82c-0.09-0.32,0-0.69-0.02-1.03c-0.16-2.13-1.15-2.74-3.02-1.87c-0.51,0.23-1.04,0.52-1.58,0.55
		c-1.27,0.07-1.12,0.86-0.67,1.47c0.69,0.95,0.57,2.16,1.22,3.09c0.2,0.29,0.24,0.71-0.14,0.91c-0.41,0.22-0.9,0.18-1.16-0.24
		c-0.86-1.41-1.39-2.97-1.33-4.61c0.02-0.57-0.02-0.69-0.53-0.85c-1.19-0.38-2.38-0.74-3.42-1.49c-0.85-0.61-1.39-0.32-1.63,0.73
		c-0.32,1.38-0.87,1.7-2.28,1.35c-0.73-0.18-1.49-0.69-2.14,0.13c-0.57,0.71-0.29,1.45-0.03,2.2c0.13,0.39,0.57,0.92-0.14,1.2
		c-0.72,0.29-0.86-0.37-1.11-0.79c-0.28-0.46-0.24-1-0.27-1.51c-0.02-0.28,0.11-0.65-0.32-0.74c-0.29-0.06-0.52,0.1-0.67,0.31
		c-0.92,1.3-2.03,1.47-3.49,0.84c-1.36-0.58-2.49,0.42-2.12,1.88c0.91,3.63,2.56,6.92,5.01,9.77c0.33,0.39,0.92,0.73,0.39,1.25
		c-0.51,0.5-1.04,0.16-1.45-0.31c-0.83-0.95-1.48-2.01-2.09-3.11c-0.76-1.36-0.98-1.37-1.79-0.15c-1.46,2.19-3.74,3.14-6.08,3.88
		c-1.63,0.52-3.31,1.02-5.07,0.94c-0.42-0.02-0.92,0.09-0.96-0.57c-0.03-0.62,0.39-0.66,0.86-0.7c3.09-0.26,5.98-1.01,8.6-2.83
		c1.78-1.23,2.67-3.07,2.07-5.1c-0.43-1.43-0.96-2.85-0.63-4.41c0.37-1.75,1.71-2.61,3.35-1.95c0.96,0.39,1.76,0.72,2.28-0.53
		c0.02-0.04,0.06-0.08,0.09-0.09c1.79-0.34,3.42-1.57,5.36-1.07c0.65,0.17,0.94,0.2,1.21-0.57c0.66-1.88,1.91-2.27,3.67-1.32
		c0.72,0.39,1.42,0.82,2.17,1.13c1.71,0.71,3.41,0.96,5.01-0.31c0.52-0.41,1.16-0.56,1.82-0.61c1.12-0.09,2.23,0.08,3.06-1.16
		c0.42-0.62,1.74-0.66,2.15,0.17c0.54,1.08,1.37,1.25,2.33,1.48c2.08,0.49,2.08,0.51,2.08-1.66c0-2.44,0.01-2.49-2.39-3.16
		c-2.38-0.66-4.32-2.09-6.36-3.37c-0.52-0.32-0.75-0.84-0.63-1.46c0.39-1.98,0.62-4.03,2.15-5.57c0.12-0.12,0.34-0.31,0.31-0.39
		c-0.77-2.21,1.73-3.06,2-4.94c0.26-1.84,1.04-3.66,1.87-5.36c1.09-2.26,1.95-4.58,2.73-6.95c0.15-0.45,0.29-1.1,0.95-1.09
		c0.69,0.01,1.01,0.48,1.22,1.12c0.78,2.29,1.45,4.63,2.47,6.81c1.06,2.26,1.89,4.6,2.78,6.91c0.18,0.48,0.41,0.94,0.81,1.31
		c0.49,0.45,0.95,0.95,0.3,1.67c-0.28,0.31-0.11,0.58,0.24,0.83c1.37,1,1.71,2.49,2.19,4.06c0.8,2.58-0.65,3.26-2.44,4.35
		c-1.92,1.17-3.9,2-6,2.64c-0.49,0.15-0.72,0.31-0.71,0.86c0.03,1.34,0.04,2.68,0,4.02c-0.02,0.65,0.36,0.88,0.83,1.16
		c2.65,1.6,4.84,3.73,6.76,6.1c1.4,1.73,2.03,3.87,2.63,6.01c0.6,2.13,0.95,4.27,0.61,6.46c-0.21,1.33-0.56,2.66-1,3.94
		c-0.28,0.82,0.04,1.02,0.7,1.09c1.73,0.19,2.72,1.15,3.77,2.57c1.28,1.74,1.94,3.16,0.83,5.18c-0.31,0.57,0.03,1.43-0.42,2.1
		c-0.23,0.35,0.23,0.33,0.43,0.41c0.36,0.15,0.79,0.27,0.65,0.8c-0.13,0.52-0.6,0.39-0.97,0.41c-0.22,0.01-0.43,0-0.65,0
		c-19.59,0-39.19,0-58.78,0c-0.3,0-0.61,0-0.91,0c-0.31,0-0.62-0.02-0.69-0.42c-0.07-0.41,0.1-0.72,0.48-0.79
		c2.76-0.53,4.09-3.03,6.19-4.47c2.19-1.5,4.38-3.05,6.66-4.36c2.11-1.21,4.55-0.64,6.73,0.37c0.54,0.25,0.84,0.27,1.36-0.08
		c1.02-0.68,2.25-0.43,3.39-0.41c1.7,0.04,3.35-0.04,4.95-0.93c-2.57-0.38-4.28-2.41-6.64-3.22c-1.74-0.6-2.04-2.41-0.74-3.31
		c0.74-0.51,1.26-0.24,1.44,0.72c-0.53,0.01-0.94,0.32-0.9,0.81c0.05,0.56,0.66,0.51,1.1,0.6c0.12,0.14,0.24,0.42,0.44,0.17
		c0.1-0.13-0.13-0.25-0.29-0.3C26.02,54.87,25.99,54.45,25.95,54.03z M27.83,56.38c0.1,0.26,0.29,0.32,0.54,0.24
		c0.07,0.8,0.84,0.77,1.32,1.02c0.66,0.34,1.59,1.32,1.93-0.39c0.03-0.15,0.42-0.25,0.65-0.35c0.41-0.18,1-0.17,1-0.81
		c0-0.56-0.49-0.73-0.93-0.97c-0.22,1.12-0.76,1.84-1.97,1.86c-0.7,0.01-1.37-0.08-2.02-0.33c-0.08-0.24-0.24-0.34-0.49-0.29
		c-0.05-0.48-0.1-0.95-0.15-1.43C27.59,55.43,26.5,56.12,27.83,56.38z M34.6,55.05c-0.08-0.17-0.27-0.29-0.36-0.14
		c-0.12,0.19,0.15,0.19,0.27,0.26c0.1,0.87,0.1,1.73-0.48,2.47c-0.12,0.06-0.41-0.03-0.31,0.2c0.07,0.16,0.3,0.06,0.42-0.09
		C35.17,57,35.28,56.09,34.6,55.05z M61.2,66.87c0.66-0.39,0.83-1.18,1.35-1.7c0.2-0.2,0.25-0.7-0.19-0.87
		c-0.43-0.16-0.44,0.22-0.54,0.51c-0.24,0.64-0.52,1.27-0.79,1.91c-0.15,0.13-0.31,0.25-0.11,0.46C61,67.08,61.1,66.98,61.2,66.87z
		 M16.66,64.68c0.63-0.18,1.3-0.62,1.87,0.07c0.52,0.63-0.47,0.64-0.51,1.08c0.4,0.29,0.84,0.42,1.32,0.34
		c0.58-0.09,0.84-0.47,0.6-1.02c-0.31-0.73-0.96-1.1-1.7-1.23c-0.66-0.11-1.29,0.01-1.57,0.76c-0.11,0.06-0.22,0.12-0.34,0.18
		c-0.83,0.61-0.81,1.33-0.29,2.12c1,1.55,3.45,2.03,5.36,1.32c2.12-0.78,2.43-3.9,0.76-5.28c-2.03-1.67-5.23-2.33-7.6-0.28
		c-1.06,0.91-1.42,2.04-1.25,3.34c0.17,1.29,0.77,2.3,2.2,2.71c-0.26-0.7-0.5-1.29-0.7-1.89c-0.46-1.32-0.18-2.5,0.85-3.42
		c1.06-0.94,2.33-1.1,3.64-0.61c1.59,0.6,2.47,2.55,1.68,3.63c-0.56,0.77-2.32,1.08-3.48,0.62c-1.03-0.4-1.3-1.18-1.06-2.19
		C16.51,64.87,16.59,64.77,16.66,64.68z M11.96,64.91c-2.75,0.6-3.94,3.17-5.95,4.7c2.53,0,5.06,0,7.81,0
		c-1.64-1.29-1.73-2.97-1.82-4.66c0.03-0.05,0.07-0.1,0.1-0.15C12.06,64.84,12.01,64.87,11.96,64.91z M50.49,66.87
		c1.45-0.73,2.61-1.6,2.76-3.24c0.19-2.15-0.54-4.08-1.67-5.85c-2.11-3.31-4.52-6.5-4.31-10.74c0.01-0.24,0.07-0.53-0.21-0.69
		c-0.5-0.28-2.64,0.91-2.53,1.46c0.35,1.78,0.04,3.61,0.45,5.39c0.55,2.46,1.26,4.87,2.76,6.9C49.22,62.13,50.43,64.19,50.49,66.87z
		 M47.25,23.05c2.46,0,4.93,0.01,7.39,0c1.28-0.01,1.57-0.47,0.92-1.57c-0.36-0.62-0.9-1.13-1.34-1.71
		c-0.56-0.73-1.23-1.06-2.21-1.04c-2.94,0.07-5.88,0.03-8.82,0.03c-1.96,0-3.53,1.18-4.2,3.05c-0.32,0.9-0.15,1.27,0.86,1.26
		C42.32,23.03,44.78,23.05,47.25,23.05z M54.41,62.36c1.05-0.68,1.38-1.43,1.42-2.35c0.14-3.26,0.37-6.52-1.32-9.55
		c-1.06-1.91-1.76-4.02-3.57-5.45c-1-0.79-1.69-0.65-2.08,0.62c-0.13,0.4-0.2,0.84-0.2,1.26c-0.01,1.92,0.39,3.75,1.21,5.49
		c0.57,1.21,1.36,2.27,2.1,3.38C53.25,57.71,54.35,59.75,54.41,62.36z M39.72,53.19c0.2-1.48,0.01-2.92-0.3-4.36
		c-0.13-0.6-0.32-0.93-1.02-0.79c-1.76,0.36-3.39,0.98-4.77,2.18c-0.84,0.73-1.11,1.59,0.03,2.14c2.04,0.99,2.47,3.03,3.17,4.79
		c0.65,1.65,1.83,2.66,3.08,3.7c0.17,0.14,0.39,0.24,0.6,0.13c0.27-0.14,0.01-0.39,0.06-0.56c0.17-0.63-0.5-0.97-0.49-1.54
		C40.13,56.96,39.56,55.1,39.72,53.19z M23.67,62.76c0.95,0.18,1.82,0.04,2.57,0.64c2.21,1.77,4.75,2.63,7.58,2.9
		c1.6,0.16,3.24,0.35,4.81,0.87c0.33,0.11,0.95,0.71,1.12-0.09c0.12-0.55,0.62-1.27-0.39-1.75c-1.21-0.58-2.46-1.03-3.7-1.51
		c-3.36-1.3-6.82-2.09-10.46-1.81C24.66,62.06,24.1,62.06,23.67,62.76z M57.25,54.83c0.43-1.58,0.44-3.15,0.19-4.74
		c-0.64-4.02-2.52-7.36-5.4-10.18c-0.18-0.17-0.35-0.45-0.64-0.32c-0.31,0.13-0.18,0.45-0.17,0.69c0.01,0.74,0,1.47-0.27,2.17
		c-0.17,0.46-0.03,0.84,0.37,1.13c2.21,1.59,3.25,4.05,4.5,6.31C56.66,51.4,56.89,53.13,57.25,54.83z M22.11,69.62
		c4.33,0,8.43,0,12.56,0c-0.15-0.35-0.46-0.29-0.69-0.35c-2.88-0.66-5.39-2.01-7.49-4.08c-0.45-0.44-1.06-0.56-1.56-0.89
		c-0.36-0.24-0.7-0.21-0.59,0.37C24.73,66.74,24.02,68.35,22.11,69.62z M48.09,5.09c0,2.38,0,4.77,0,7.15c0,3.58,0,3.58,3.56,3.38
		c0.04,0,0.09,0,0.13,0c0.64,0.05,0.73-0.21,0.49-0.76c-0.87-2-1.77-3.98-2.49-6.04C49.34,7.55,49.06,6.21,48.09,5.09z M46.57,5.12
		c-0.09-0.02-0.18-0.04-0.27-0.06c-0.43,1.19-0.87,2.38-1.29,3.58c-0.73,2.06-1.86,3.96-2.5,6.07c-0.22,0.73-0.08,0.94,0.64,0.92
		c0.86-0.02,1.73-0.02,2.59,0c0.5,0.01,0.83-0.11,0.83-0.71C46.57,11.65,46.57,8.39,46.57,5.12z M49.31,67.07
		c-0.07-1.76-0.47-3.18-1.36-4.27c-1.59-1.94-2.53-4.18-3.49-6.44c-0.17-0.41-0.1-1.21-0.56-1.15c-0.72,0.1-0.34,0.93-0.45,1.44
		c-0.05,0.25,0.1,0.63,0.29,0.83c0.62,0.66,0.68,1.47,0.67,2.28c-0.01,0.94-0.11,1.89-0.2,2.83c-0.05,0.48,0.05,0.8,0.51,1.06
		C46.32,64.56,47.85,65.57,49.31,67.07z M47.44,25.13c0.65,0,1.29,0,1.94,0c1.94,0,3.88,0,5.82-0.01c0.39,0,0.89-0.05,0.89-0.54
		c0-0.6-0.56-0.39-0.9-0.41c-1.03-0.04-2.07,0.02-3.1-0.07c-4.25-0.4-8.5,0.08-12.75-0.1c-0.32-0.01-0.76,0.11-0.79,0.53
		c-0.03,0.44,0.42,0.5,0.74,0.57c0.29,0.06,0.6,0.03,0.9,0.03C42.61,25.13,45.02,25.13,47.44,25.13z M32.05,61.2
		c2.71,0.93,5.37,1.78,7.87,3.03c0.34,0.17,0.57,0.12,0.67-0.28c0.12-0.46,0.39-0.99-0.16-1.28c-1.81-0.96-3.25-2.34-4.52-3.91
		c-0.33-0.41-0.49-0.17-0.71,0.04C34.26,59.72,33.42,60.77,32.05,61.2z M41.29,26.28c4.08,3,9.54,2.93,12,0
		C49.37,26.28,45.45,26.28,41.29,26.28z M46.73,44.97c-1.3-0.55-1.87-1.34-1.82-2.49c0.05-1.16,0.15-2.29-0.66-3.32
		c-0.32-0.4-0.15-1.09,0.01-1.64c0.13-0.46,0.32-0.9,0.39-1.37c0.09-0.61-0.24-0.99-0.85-1.06c-0.36-0.04-0.85-0.18-0.86,0.45
		c-0.02,1.12-0.17,2.27,0.03,3.35c0.27,1.43,0.37,2.83-0.04,4.22c-0.31,1.05,0.37,1.78,0.85,2.46c0.36,0.52,1.12,0.04,1.69-0.13
		C45.79,45.34,46.11,45.21,46.73,44.97z M53.59,66.16c0.19,0.03,0.33,0.1,0.43,0.07c2.09-0.6,3.64-2.03,5.13-3.5
		c0.53-0.53,0.73-1.32-0.02-1.93c-0.67-0.55-1.88-0.35-2.21,0.49C56.18,63.16,54.79,64.56,53.59,66.16z M60.68,62.76
		c-0.72,1.24-1.53,2.03-2.54,2.64c-1.37,0.83-2.13,2.14-2.74,3.59C57.78,69.43,61.14,65.2,60.68,62.76z M53.45,17.46
		c-0.01-0.17-0.01-0.34-0.02-0.51c-4.07,0.07-8.15-0.2-12.22,0.12c0,0.13,0,0.26,0,0.39C45.29,17.46,49.37,17.46,53.45,17.46z
		 M46.03,41.98c-0.01,0.59,0.1,1,0.45,1.3c0.14,0.11,0.34,0.09,0.45-0.07c0.24-0.36,0.13-0.75,0.04-1.13
		c-0.05-0.21-0.13-0.41-0.18-0.62c-0.27-1.11-0.65-2.2,1.11-2.52c0.81-0.14,0.32-1.12,0.11-1.25c-0.7-0.46-0.89-2.02-1.93-1.4
		c-0.53,0.31-1.1,1.68-0.63,2.42C46.16,39.85,46.43,40.89,46.03,41.98z M48.14,68.12c-0.04-0.23-0.13-0.39-0.3-0.55
		c-1.02-1-2.15-1.86-3.36-2.61c-0.32-0.2-0.71-0.51-0.97,0.02c-0.19,0.4-0.23,0.95,0.24,1.15c1.3,0.53,2.34,1.45,3.48,2.22
		C47.58,68.6,47.95,68.63,48.14,68.12z M42.78,59.51c-0.8,2.54-0.99,5.16-1.44,7.73c-0.17,0.99,0.37,1.38,1.51,1.25
		c-1.03-0.91-1.11-1.89-0.77-3.03C42.65,63.52,43.1,61.54,42.78,59.51z M49.71,38.95c-0.34,0.64-0.82,1.06-1.42,1.38
		c-0.31,0.17-0.24,0.54-0.09,0.82c0.39,0.73,0.44,1.53,0.45,2.6C49.96,42.21,50.18,40.7,49.71,38.95z M54.13,67.69
		c-1.96,0.64-3.85,0.76-5.36,1.96C50.64,69.49,52.84,70.29,54.13,67.69z M41.19,38.29c0.94-1.96,0.81-3.99-0.33-4.91
		C40.7,35.09,41.17,36.68,41.19,38.29z M39.35,68.79c-1.83-0.49-3.64-1.11-5.58-1.05C35.54,68.55,37.4,68.89,39.35,68.79z
		 M42.38,53.18c-0.53,1.66-0.96,3.35-0.8,5.12C42.08,56.63,42.74,54.99,42.38,53.18z M41.45,50.71c0.38-1.59,1.19-3.12,0.85-4.84
		C41.61,47.41,41.25,49.01,41.45,50.71z M42.05,40.46c-0.99,1.27-1.37,3.11-1.01,5.07C41.49,43.71,42.07,42.24,42.05,40.46z
		 M60.9,68.81c-1.16,0.11-2.04,0.13-3.01,0.96C59.11,69.83,59.99,69.79,60.9,68.81z"/>
	<path class="st1" d="M11.96,64.91c0.05-0.04,0.1-0.07,0.14-0.11c-0.03,0.05-0.07,0.1-0.1,0.15C12.01,64.95,11.96,64.91,11.96,64.91
		z"/>
	<path class="st1" d="M16.66,64.68c-0.08,0.1-0.15,0.19-0.23,0.29c0,0-0.09-0.09-0.09-0.09c0.11-0.06,0.22-0.12,0.34-0.19
		C16.68,64.69,16.66,64.68,16.66,64.68z"/>
</g>
</svg>
